<svg xmlns="http://www.w3.org/2000/svg" xmlns:xlink="http://www.w3.org/1999/xlink" width="500" zoomAndPan="magnify" viewBox="0 0 375 374.999991" height="500" preserveAspectRatio="xMidYMid meet" version="1.0"><defs><clipPath id="1f392067f9"><path d="M 76 212 L 163 212 L 163 256 L 76 256 Z M 76 212 " clip-rule="nonzero"/></clipPath><clipPath id="8d0c632ec3"><path d="M 18.65625 67.40625 L 18.65625 307.59375 C 18.65625 334.515625 40.484375 356.34375 67.40625 356.34375 L 307.59375 356.34375 C 334.515625 356.34375 356.34375 334.515625 356.34375 307.59375 L 356.34375 67.40625 C 356.34375 40.484375 334.515625 18.65625 307.59375 18.65625 L 67.40625 18.65625 C 40.484375 18.65625 18.65625 40.484375 18.65625 67.40625 Z M 18.65625 67.40625 " clip-rule="nonzero"/></clipPath><clipPath id="e3bad4302c"><path d="M 212 140 L 299 140 L 299 170 L 212 170 Z M 212 140 " clip-rule="nonzero"/></clipPath><clipPath id="82bbceb410"><path d="M 18.65625 67.40625 L 18.65625 307.59375 C 18.65625 334.515625 40.484375 356.34375 67.40625 356.34375 L 307.59375 356.34375 C 334.515625 356.34375 356.34375 334.515625 356.34375 307.59375 L 356.34375 67.40625 C 356.34375 40.484375 334.515625 18.65625 307.59375 18.65625 L 67.40625 18.65625 C 40.484375 18.65625 18.65625 40.484375 18.65625 67.40625 Z M 18.65625 67.40625 " clip-rule="nonzero"/></clipPath><clipPath id="b1f9082555"><path d="M 270 54 L 285 54 L 285 98 L 270 98 Z M 270 54 " clip-rule="nonzero"/></clipPath><clipPath id="78b119e925"><path d="M 18.65625 67.40625 L 18.65625 307.59375 C 18.65625 334.515625 40.484375 356.34375 67.40625 356.34375 L 307.59375 356.34375 C 334.515625 356.34375 356.34375 334.515625 356.34375 307.59375 L 356.34375 67.40625 C 356.34375 40.484375 334.515625 18.65625 307.59375 18.65625 L 67.40625 18.65625 C 40.484375 18.65625 18.65625 40.484375 18.65625 67.40625 Z M 18.65625 67.40625 " clip-rule="nonzero"/></clipPath><clipPath id="c37c4b0485"><path d="M 90 61 L 148 61 L 148 170 L 90 170 Z M 90 61 " clip-rule="nonzero"/></clipPath><clipPath id="513f1191fd"><path d="M 18.65625 67.40625 L 18.65625 307.59375 C 18.65625 334.515625 40.484375 356.34375 67.40625 356.34375 L 307.59375 356.34375 C 334.515625 356.34375 356.34375 334.515625 356.34375 307.59375 L 356.34375 67.40625 C 356.34375 40.484375 334.515625 18.65625 307.59375 18.65625 L 67.40625 18.65625 C 40.484375 18.65625 18.65625 40.484375 18.65625 67.40625 Z M 18.65625 67.40625 " clip-rule="nonzero"/></clipPath><clipPath id="158a042a48"><path d="M 234 18.65625 L 321 18.65625 L 321 41 L 234 41 Z M 234 18.65625 " clip-rule="nonzero"/></clipPath><clipPath id="055155dc89"><path d="M 18.65625 67.40625 L 18.65625 307.59375 C 18.65625 334.515625 40.484375 356.34375 67.40625 356.34375 L 307.59375 356.34375 C 334.515625 356.34375 356.34375 334.515625 356.34375 307.59375 L 356.34375 67.40625 C 356.34375 40.484375 334.515625 18.65625 307.59375 18.65625 L 67.40625 18.65625 C 40.484375 18.65625 18.65625 40.484375 18.65625 67.40625 Z M 18.65625 67.40625 " clip-rule="nonzero"/></clipPath><clipPath id="d976ec0f37"><path d="M 18.65625 298 L 356.15625 298 L 356.15625 356.15625 L 18.65625 356.15625 Z M 18.65625 298 " clip-rule="nonzero"/></clipPath><clipPath id="f29e6d99b1"><path d="M 18.65625 67.40625 L 18.65625 307.59375 C 18.65625 334.515625 40.484375 356.34375 67.40625 356.34375 L 307.59375 356.34375 C 334.515625 356.34375 356.34375 334.515625 356.34375 307.59375 L 356.34375 67.40625 C 356.34375 40.484375 334.515625 18.65625 307.59375 18.65625 L 67.40625 18.65625 C 40.484375 18.65625 18.65625 40.484375 18.65625 67.40625 Z M 18.65625 67.40625 " clip-rule="nonzero"/></clipPath><clipPath id="69012489a9"><path d="M 33 112 L 342 112 L 342 285 L 33 285 Z M 33 112 " clip-rule="nonzero"/></clipPath><clipPath id="2f654bda88"><path d="M 18.65625 67.40625 L 18.65625 307.59375 C 18.65625 334.515625 40.484375 356.34375 67.40625 356.34375 L 307.59375 356.34375 C 334.515625 356.34375 356.34375 334.515625 356.34375 307.59375 L 356.34375 67.40625 C 356.34375 40.484375 334.515625 18.65625 307.59375 18.65625 L 67.40625 18.65625 C 40.484375 18.65625 18.65625 40.484375 18.65625 67.40625 Z M 18.65625 67.40625 " clip-rule="nonzero"/></clipPath></defs><g clip-path="url(#1f392067f9)"><g clip-path="url(#8d0c632ec3)"><path fill="#004aad" d="M 76.132812 212.640625 L 162.347656 212.640625 L 162.347656 255.75 L 76.132812 255.75 Z M 76.132812 212.640625 " fill-opacity="1" fill-rule="nonzero"/></g></g><g clip-path="url(#e3bad4302c)"><g clip-path="url(#82bbceb410)"><path fill="#004aad" d="M 212.640625 140.792969 L 298.855469 140.792969 L 298.855469 169.53125 L 212.640625 169.53125 Z M 212.640625 140.792969 " fill-opacity="1" fill-rule="nonzero"/></g></g><g clip-path="url(#b1f9082555)"><g clip-path="url(#78b119e925)"><path fill="#004aad" d="M 270.117188 54.578125 L 284.488281 54.578125 L 284.488281 97.6875 L 270.117188 97.6875 Z M 270.117188 54.578125 " fill-opacity="1" fill-rule="nonzero"/></g></g><g clip-path="url(#c37c4b0485)"><g clip-path="url(#513f1191fd)"><path fill="#004aad" d="M 147.980469 76.132812 C 147.980469 68.210938 141.535156 61.765625 133.609375 61.765625 L 104.871094 61.765625 C 96.949219 61.765625 90.503906 68.210938 90.503906 76.132812 L 90.503906 169.535156 L 147.980469 169.535156 Z M 147.980469 76.132812 " fill-opacity="1" fill-rule="nonzero"/></g></g><g clip-path="url(#158a042a48)"><g clip-path="url(#055155dc89)"><path fill="#004aad" d="M 244.972656 40.210938 C 260.746094 40.210938 293.859375 40.210938 309.632812 40.210938 C 315.574219 40.210938 320.410156 35.375 320.410156 29.433594 C 320.410156 23.492188 315.574219 18.65625 309.632812 18.65625 L 244.972656 18.65625 C 239.027344 18.65625 234.195312 23.492188 234.195312 29.433594 C 234.195312 35.375 239.027344 40.210938 244.972656 40.210938 Z M 244.972656 40.210938 " fill-opacity="1" fill-rule="nonzero"/></g></g><g clip-path="url(#d976ec0f37)"><g clip-path="url(#f29e6d99b1)"><path fill="#004aad" d="M 18.65625 298.855469 L 18.65625 356.332031 L 356.332031 356.332031 L 356.332031 298.855469 C 340.398438 298.855469 37.277344 298.855469 18.65625 298.855469 Z M 18.65625 298.855469 " fill-opacity="1" fill-rule="nonzero"/></g></g><g clip-path="url(#69012489a9)"><g clip-path="url(#2f654bda88)"><path fill="#004aad" d="M 328.125 112.058594 C 322.863281 112.058594 163.246094 112.058594 162.347656 112.058594 L 162.347656 169.535156 L 169.53125 169.535156 C 173.5 169.535156 176.71875 172.75 176.71875 176.71875 C 176.71875 180.6875 173.5 183.902344 169.53125 183.902344 C 135.84375 183.902344 98.101562 183.902344 68.949219 183.902344 C 64.980469 183.902344 61.765625 180.6875 61.765625 176.71875 C 61.765625 172.75 64.980469 169.535156 68.949219 169.535156 L 76.132812 169.535156 L 76.132812 112.058594 L 46.863281 112.058594 L 33.601562 284.488281 L 341.390625 284.488281 Z M 176.71875 262.933594 C 176.71875 266.902344 173.5 270.117188 169.53125 270.117188 L 68.949219 270.117188 C 64.980469 270.117188 61.765625 266.902344 61.765625 262.933594 L 61.765625 205.457031 C 61.765625 201.488281 64.980469 198.269531 68.949219 198.269531 L 169.53125 198.269531 C 173.5 198.269531 176.71875 201.488281 176.71875 205.457031 Z M 219.824219 270.117188 L 205.457031 270.117188 C 201.488281 270.117188 198.273438 266.902344 198.273438 262.933594 C 198.273438 258.964844 201.488281 255.75 205.457031 255.75 L 219.824219 255.75 C 223.792969 255.75 227.011719 258.964844 227.011719 262.933594 C 227.011719 266.902344 223.792969 270.117188 219.824219 270.117188 Z M 219.824219 241.378906 L 205.457031 241.378906 C 201.488281 241.378906 198.273438 238.164062 198.273438 234.195312 C 198.273438 230.226562 201.488281 227.011719 205.457031 227.011719 L 219.824219 227.011719 C 223.792969 227.011719 227.011719 230.226562 227.011719 234.195312 C 227.011719 238.164062 223.792969 241.378906 219.824219 241.378906 Z M 219.824219 212.640625 L 205.457031 212.640625 C 201.488281 212.640625 198.273438 209.425781 198.273438 205.457031 C 198.273438 201.488281 201.488281 198.273438 205.457031 198.273438 L 219.824219 198.273438 C 223.792969 198.273438 227.011719 201.488281 227.011719 205.457031 C 227.011719 209.425781 223.792969 212.640625 219.824219 212.640625 Z M 262.933594 270.117188 L 248.5625 270.117188 C 244.597656 270.117188 241.378906 266.902344 241.378906 262.933594 C 241.378906 258.964844 244.597656 255.75 248.5625 255.75 L 262.933594 255.75 C 266.898438 255.75 270.117188 258.964844 270.117188 262.933594 C 270.117188 266.902344 266.902344 270.117188 262.933594 270.117188 Z M 262.933594 241.378906 L 248.5625 241.378906 C 244.597656 241.378906 241.378906 238.164062 241.378906 234.195312 C 241.378906 230.226562 244.597656 227.011719 248.5625 227.011719 L 262.933594 227.011719 C 266.898438 227.011719 270.117188 230.226562 270.117188 234.195312 C 270.117188 238.164062 266.902344 241.378906 262.933594 241.378906 Z M 262.933594 212.640625 L 248.5625 212.640625 C 244.597656 212.640625 241.378906 209.425781 241.378906 205.457031 C 241.378906 201.488281 244.597656 198.273438 248.5625 198.273438 L 262.933594 198.273438 C 266.898438 198.273438 270.117188 201.488281 270.117188 205.457031 C 270.117188 209.425781 266.902344 212.640625 262.933594 212.640625 Z M 306.039062 270.117188 L 291.671875 270.117188 C 287.703125 270.117188 284.488281 266.902344 284.488281 262.933594 C 284.488281 258.964844 287.703125 255.75 291.671875 255.75 L 306.039062 255.75 C 310.007812 255.75 313.226562 258.964844 313.226562 262.933594 C 313.226562 266.902344 310.007812 270.117188 306.039062 270.117188 Z M 306.039062 241.378906 L 291.671875 241.378906 C 287.703125 241.378906 284.488281 238.164062 284.488281 234.195312 C 284.488281 230.226562 287.703125 227.011719 291.671875 227.011719 L 306.039062 227.011719 C 310.007812 227.011719 313.226562 230.226562 313.226562 234.195312 C 313.226562 238.164062 310.007812 241.378906 306.039062 241.378906 Z M 306.039062 212.640625 L 291.671875 212.640625 C 287.703125 212.640625 284.488281 209.425781 284.488281 205.457031 C 284.488281 201.488281 287.703125 198.273438 291.671875 198.273438 L 306.039062 198.273438 C 310.007812 198.273438 313.226562 201.488281 313.226562 205.457031 C 313.226562 209.425781 310.007812 212.640625 306.039062 212.640625 Z M 313.226562 176.71875 C 313.226562 180.6875 310.007812 183.902344 306.039062 183.902344 L 205.457031 183.902344 C 201.488281 183.902344 198.273438 180.6875 198.273438 176.71875 L 198.273438 133.609375 C 198.273438 129.640625 201.488281 126.425781 205.457031 126.425781 L 306.039062 126.425781 C 310.007812 126.425781 313.226562 129.640625 313.226562 133.609375 Z M 313.226562 176.71875 " fill-opacity="1" fill-rule="nonzero"/></g></g></svg>